<svg width="1175" height="168" viewBox="0 0 1175 168" fill="none" xmlns="http://www.w3.org/2000/svg">
<g opacity="0.95" clip-path="url(#clip0_415_4)">
<g opacity="0.95" clip-path="url(#clip1_415_4)">
<path d="M141.084 152.339C141.084 162.466 131.767 167.529 113.27 167.529H27.4994C9.27648 167.529 0.233521 162.466 0.233521 152.339V111.286H45.1743V146.181H95.7326V0.989807H140.947V152.339H141.084Z" fill="white"/>
<path d="M734.22 152.339C734.22 162.466 724.903 167.529 706.406 167.529H620.635C602.412 167.529 593.369 162.466 593.369 152.339V111.286H638.31V146.181H688.869V0.989807H734.083V152.339H734.22Z" fill="white"/>
<path d="M815.059 167.529H769.844V0.989746H815.059V167.529Z" fill="white"/>
<path d="M1002.63 167.529H957.828L948.785 135.918H892.198L883.155 167.529H838.488V167.118L896.993 0.716125H944.538L1002.63 167.529ZM942.345 114.57L920.286 39.3061L898.09 114.57H942.345Z" fill="white"/>
<path d="M1174.59 167.529H1134.99L1062.51 62.7064C1064.43 67.7697 1065.38 71.875 1065.38 74.7487V167.529H1021.27V0.989807H1060.86L1133.34 103.76C1131.43 98.6964 1130.47 94.5911 1130.47 91.7174V0.989807H1174.45V167.529H1174.59Z" fill="white"/>
<path d="M333.316 167.529H287.69V92.8121H226.444V167.529H181.23V0.989807H226.444V69.6855H287.69V0.989807H333.316V167.529Z" fill="white"/>
<path d="M521.163 152.339C521.163 162.466 511.846 167.529 493.349 167.529H397.302C378.942 167.529 369.899 162.466 369.899 152.339V0.989807H415.113V146.181H475.948V0.989807H521.163V152.339Z" fill="white"/>
</g>
<g clip-path="url(#clip2_415_4)">
<path d="M141.084 152.339C141.084 162.466 131.767 167.529 113.27 167.529H27.4994C9.27648 167.529 0.233521 162.466 0.233521 152.339V111.286H45.1743V146.181H95.7326V0.989807H140.947V152.339H141.084Z" fill="#E1E1E1"/>
<path d="M734.22 152.339C734.22 162.466 724.903 167.529 706.406 167.529H620.635C602.412 167.529 593.369 162.466 593.369 152.339V111.286H638.31V146.181H688.869V0.989807H734.083V152.339H734.22Z" fill="#E1E1E1"/>
<path d="M815.059 167.529H769.844V0.989746H815.059V167.529Z" fill="#E1E1E1"/>
<path d="M1002.63 167.529H957.828L948.785 135.918H892.198L883.155 167.529H838.488V167.118L896.993 0.716125H944.538L1002.63 167.529ZM942.345 114.57L920.286 39.3061L898.09 114.57H942.345Z" fill="#E1E1E1"/>
<path d="M1174.59 167.529H1134.99L1062.51 62.7064C1064.43 67.7697 1065.38 71.875 1065.38 74.7487V167.529H1021.27V0.989807H1060.86L1133.34 103.76C1131.43 98.6964 1130.47 94.5911 1130.47 91.7174V0.989807H1174.45V167.529H1174.59Z" fill="#E1E1E1"/>
<path d="M333.316 167.529H287.69V92.8121H226.444V167.529H181.23V0.989807H226.444V69.6855H287.69V0.989807H333.316V167.529Z" fill="#E1E1E1"/>
<path d="M521.163 152.339C521.163 162.466 511.846 167.529 493.349 167.529H397.302C378.942 167.529 369.899 162.466 369.899 152.339V0.989807H415.113V146.181H475.948V0.989807H521.163V152.339Z" fill="#E1E1E1"/>
</g>
</g>
<defs>
<clipPath id="clip0_415_4">
<rect width="1175" height="168" fill="white"/>
</clipPath>
<clipPath id="clip1_415_4">
<rect width="1175" height="168" fill="white"/>
</clipPath>
<clipPath id="clip2_415_4">
<rect width="1175" height="84" fill="white"/>
</clipPath>
</defs>
</svg>
